<?xml version="1.0" encoding="UTF-8"?>
<svg xmlns="http://www.w3.org/2000/svg" xmlns:i="http://ns.adobe.com/AdobeIllustrator/10.0/" id="Layer_1" version="1.1" viewBox="0 0 504 144">
  <defs>
    <style>
      .st0 {
        fill: #01a982;
      }
    </style>
  </defs>
  <path class="st0" d="M391.2,81.27v35.46h112.8v27.27h-141.6V54h141.6v27.27h-112.8Z"></path>
  <path d="M276.672594,0h-89.254102v144h28.8v-36.607031h60.008203c37.913732,0,59.691797-21.58976,59.691797-53.394507,0-32.012974-21.778065-53.998462-59.245898-53.998462ZM274.791734,79.792969h-58.573242V27.27h58.573242c22.679354,0,31.280859,10.483755,31.280859,26.728462,0,16.079472-8.601505,25.794507-31.280859,25.794507ZM391.2,40.629932h-28.8V0h141.6v27.27h-112.8v13.359932ZM151.2,0v144h-28.8v-59.015918H28.8v59.015918H0V0h28.8v57.384082h93.6V0h28.8Z"></path>
  <metadata></metadata>
</svg>
